<?xml version="1.0" standalone="no"?>
<!DOCTYPE svg PUBLIC "-//W3C//DTD SVG 20010904//EN"
 "http://www.w3.org/TR/2001/REC-SVG-20010904/DTD/svg10.dtd">
<svg version="1.0" xmlns="http://www.w3.org/2000/svg"
 width="233.000000pt" height="85.000000pt" viewBox="0 0 233.000000 85.000000"
 preserveAspectRatio="xMidYMid meet">

<g transform="translate(0.000000,85.000000) scale(0.100000,-0.100000)"
fill="#000000" stroke="none">
<path d="M1677 843 c-4 -3 -7 -149 -7 -323 l0 -317 41 -7 c22 -4 44 -4 50 -1
5 4 9 139 9 331 l0 324 -43 0 c-24 0 -47 -3 -50 -7z"/>
<path d="M142 811 c-87 -30 -132 -85 -132 -163 0 -77 55 -138 163 -179 72 -28
117 -67 117 -104 0 -83 -87 -116 -209 -79 -30 8 -57 12 -62 7 -5 -5 -10 -24
-11 -43 -3 -34 -1 -36 47 -53 35 -12 71 -16 121 -14 85 5 142 33 198 99 l36
43 0 -51 c0 -68 15 -86 65 -82 l40 3 0 220 0 220 -38 3 c-61 5 -67 -6 -68
-127 0 -86 -2 -102 -12 -87 -37 60 -78 92 -164 132 -50 24 -96 52 -102 63 -27
50 4 104 67 117 18 4 60 1 93 -6 33 -7 62 -11 64 -8 3 3 6 22 8 44 l2 38 -50
12 c-71 17 -113 16 -173 -5z"/>
<path d="M427 812 c-21 -23 -22 -66 -1 -82 40 -34 104 -5 104 45 0 48 -70 73
-103 37z"/>
<path d="M1817 812 c-20 -22 -22 -63 -5 -80 7 -7 26 -12 43 -12 38 0 55 16 55
51 0 53 -59 79 -93 41z"/>
<path d="M715 635 c-16 -9 -38 -23 -47 -32 -20 -18 -38 -10 -38 18 0 17 -6 20
-42 17 l-43 -3 -3 -214 c-2 -165 1 -216 10 -223 16 -10 69 -10 85 0 8 5 13 57
15 161 l3 153 29 24 c38 33 91 30 119 -8 17 -22 21 -48 26 -180 l6 -153 45 0
45 0 5 158 5 159 29 24 c39 34 91 30 120 -9 19 -25 22 -46 26 -180 l5 -152 45
0 45 0 3 170 c3 192 -5 221 -67 262 -56 38 -149 26 -195 -26 -25 -28 -34 -27
-72 10 -40 39 -111 50 -159 24z"/>
<path d="M1415 636 c-17 -7 -36 -20 -44 -29 -19 -24 -39 -21 -43 6 -3 19 -9
22 -48 22 l-45 0 0 -310 0 -310 53 -3 52 -3 0 104 c0 57 2 106 5 109 3 3 26
-6 52 -18 25 -13 63 -24 82 -24 44 0 136 41 150 67 5 11 11 87 12 171 3 149 3
152 -21 178 -48 51 -138 69 -205 40z m80 -80 c48 -20 75 -68 75 -134 0 -99
-42 -157 -115 -157 -78 0 -123 69 -112 172 7 65 27 100 70 118 40 18 41 18 82
1z"/>
<path d="M2028 634 c-39 -12 -48 -19 -48 -37 0 -43 11 -47 69 -31 63 19 110
12 140 -20 39 -41 25 -60 -48 -68 -123 -14 -201 -76 -201 -163 0 -111 116
-168 225 -110 l48 26 14 -21 c11 -16 24 -20 51 -18 l37 3 0 165 c0 148 -2 169
-21 205 -40 77 -149 105 -266 69z m182 -265 c0 -70 -31 -108 -90 -109 -41 0
-53 7 -69 38 -28 54 29 111 112 112 l47 0 0 -41z"/>
<path d="M1812 628 c-17 -17 -17 -409 0 -426 7 -7 26 -12 43 -12 53 0 55 7 55
225 0 218 -2 225 -55 225 -17 0 -36 -5 -43 -12z"/>
</g>
</svg>
